<svg width="1200" height="400" xmlns="http://www.w3.org/2000/svg">
  <!-- Background gradient -->
  <defs>
    <linearGradient id="bg-gradient" x1="0%" y1="0%" x2="0%" y2="100%">
      <stop offset="0%" style="stop-color:#2E7D32;stop-opacity:1" />
      <stop offset="100%" style="stop-color:#1B5E20;stop-opacity:1" />
    </linearGradient>
  </defs>
  
  <!-- Background -->
  <rect width="100%" height="100%" fill="url(#bg-gradient)" />
  
  <!-- Modern patio design -->
  <g>
    <!-- Stone patio floor -->
    <rect x="0" y="250" width="1200" height="150" fill="#9E9E9E" />
    
    <!-- Patio pattern -->
    <g fill="#BDBDBD" stroke="#757575" stroke-width="2">
      <rect x="50" y="250" width="100" height="150" />
      <rect x="150" y="250" width="100" height="150" />
      <rect x="250" y="250" width="100" height="150" />
      <rect x="350" y="250" width="100" height="150" />
      <rect x="450" y="250" width="100" height="150" />
      <rect x="550" y="250" width="100" height="150" />
      <rect x="650" y="250" width="100" height="150" />
      <rect x="750" y="250" width="100" height="150" />
      <rect x="850" y="250" width="100" height="150" />
      <rect x="950" y="250" width="100" height="150" />
      <rect x="1050" y="250" width="100" height="150" />
    </g>
    
    <!-- Modern outdoor furniture -->
    <!-- Table -->
    <rect x="500" y="200" width="200" height="10" fill="#E0E0E0" />
    <rect x="540" y="210" width="120" height="5" fill="#BDBDBD" />
    <rect x="550" y="215" width="100" height="35" fill="#9E9E9E" />
    
    <!-- Chairs -->
    <g transform="translate(450, 220)">
      <rect x="-30" y="-20" width="60" height="5" fill="#E0E0E0" />
      <rect x="-25" y="-15" width="50" height="40" fill="#BDBDBD" />
      <rect x="-20" y="25" width="40" height="5" fill="#9E9E9E" />
    </g>
    
    <g transform="translate(750, 220)">
      <rect x="-30" y="-20" width="60" height="5" fill="#E0E0E0" />
      <rect x="-25" y="-15" width="50" height="40" fill="#BDBDBD" />
      <rect x="-20" y="25" width="40" height="5" fill="#9E9E9E" />
    </g>
  </g>
  
  <!-- Decorative plants -->
  <g>
    <!-- Plant 1 -->
    <g transform="translate(200, 180)">
      <rect x="-15" y="20" width="30" height="50" fill="#795548" />
      <ellipse cx="0" cy="0" rx="40" ry="30" fill="#388E3C" />
      <ellipse cx="-20" cy="-10" rx="25" ry="15" fill="#43A047" />
      <ellipse cx="20" cy="-5" rx="25" ry="20" fill="#43A047" />
    </g>
    
    <!-- Plant 2 -->
    <g transform="translate(950, 180)">
      <rect x="-15" y="20" width="30" height="50" fill="#795548" />
      <ellipse cx="0" cy="0" rx="40" ry="30" fill="#388E3C" />
      <ellipse cx="-20" cy="-10" rx="25" ry="15" fill="#43A047" />
      <ellipse cx="20" cy="-5" rx="25" ry="20" fill="#43A047" />
    </g>
    
    <!-- Small plants -->
    <g transform="translate(350, 230)">
      <ellipse cx="0" cy="0" rx="20" ry="15" fill="#388E3C" />
      <ellipse cx="-10" cy="-5" rx="12" ry="8" fill="#43A047" />
    </g>
    
    <g transform="translate(850, 230)">
      <ellipse cx="0" cy="0" rx="20" ry="15" fill="#388E3C" />
      <ellipse cx="10" cy="-5" rx="12" ry="8" fill="#43A047" />
    </g>
  </g>
  
  <!-- Overlay for text readability -->
  <rect width="100%" height="100%" fill="rgba(0,0,0,0.4)" />
</svg>